<mxfile host="65bd71144e">
    <diagram id="QI2VVd3Y-YdUV62vxfnD" name="Page-1">
        <mxGraphModel dx="376" dy="205" grid="1" gridSize="10" guides="1" tooltips="1" connect="1" arrows="1" fold="1" page="1" pageScale="1" pageWidth="827" pageHeight="1169" math="0" shadow="0">
            <root>
                <mxCell id="0"/>
                <mxCell id="1" parent="0"/>
                <mxCell id="20" style="edgeStyle=none;html=1;strokeWidth=7;entryX=1;entryY=0.5;entryDx=0;entryDy=0;" parent="1" source="2" target="13" edge="1">
                    <mxGeometry relative="1" as="geometry"/>
                </mxCell>
                <mxCell id="2" value="" style="rounded=1;whiteSpace=wrap;html=1;strokeWidth=7;" parent="1" vertex="1">
                    <mxGeometry x="230" y="160" width="220" height="60" as="geometry"/>
                </mxCell>
                <mxCell id="21" style="edgeStyle=none;html=1;entryX=1;entryY=0.5;entryDx=0;entryDy=0;strokeWidth=7;" parent="1" source="3" target="13" edge="1">
                    <mxGeometry relative="1" as="geometry"/>
                </mxCell>
                <mxCell id="3" value="" style="rounded=1;whiteSpace=wrap;html=1;strokeWidth=7;" parent="1" vertex="1">
                    <mxGeometry x="230" y="240" width="220" height="60" as="geometry"/>
                </mxCell>
                <mxCell id="4" value="" style="rounded=1;whiteSpace=wrap;html=1;strokeWidth=7;" parent="1" vertex="1">
                    <mxGeometry x="230" y="320" width="220" height="60" as="geometry"/>
                </mxCell>
                <mxCell id="5" value="" style="rounded=1;whiteSpace=wrap;html=1;strokeWidth=7;" parent="1" vertex="1">
                    <mxGeometry x="230" y="400" width="220" height="60" as="geometry"/>
                </mxCell>
                <mxCell id="6" value="" style="rounded=1;whiteSpace=wrap;html=1;strokeWidth=7;fillColor=#000000;" parent="1" vertex="1">
                    <mxGeometry x="384" y="160" width="60" height="60" as="geometry"/>
                </mxCell>
                <mxCell id="7" value="" style="rounded=1;whiteSpace=wrap;html=1;strokeWidth=7;fillColor=#000000;" parent="1" vertex="1">
                    <mxGeometry x="384" y="240" width="60" height="60" as="geometry"/>
                </mxCell>
                <mxCell id="22" style="edgeStyle=none;html=1;entryX=1;entryY=0.5;entryDx=0;entryDy=0;strokeWidth=7;" parent="1" source="8" target="12" edge="1">
                    <mxGeometry relative="1" as="geometry"/>
                </mxCell>
                <mxCell id="8" value="" style="rounded=1;whiteSpace=wrap;html=1;strokeWidth=7;fillColor=#000000;" parent="1" vertex="1">
                    <mxGeometry x="230" y="320" width="60" height="60" as="geometry"/>
                </mxCell>
                <mxCell id="23" style="edgeStyle=none;html=1;entryX=1;entryY=0.5;entryDx=0;entryDy=0;strokeWidth=7;" parent="1" source="9" target="12" edge="1">
                    <mxGeometry relative="1" as="geometry"/>
                </mxCell>
                <mxCell id="9" value="" style="rounded=1;whiteSpace=wrap;html=1;strokeWidth=7;fillColor=#000000;" parent="1" vertex="1">
                    <mxGeometry x="230" y="400" width="60" height="60" as="geometry"/>
                </mxCell>
                <mxCell id="27" style="edgeStyle=none;html=1;" parent="1" source="10" edge="1">
                    <mxGeometry relative="1" as="geometry">
                        <mxPoint x="520" y="310" as="targetPoint"/>
                    </mxGeometry>
                </mxCell>
                <mxCell id="28" style="edgeStyle=none;html=1;" parent="1" source="10" edge="1">
                    <mxGeometry relative="1" as="geometry">
                        <mxPoint x="550" y="370" as="targetPoint"/>
                    </mxGeometry>
                </mxCell>
                <mxCell id="10" value="AC" style="ellipse;whiteSpace=wrap;html=1;aspect=fixed;strokeWidth=4;fontStyle=1;fontSize=19;" parent="1" vertex="1">
                    <mxGeometry x="620" y="270" width="80" height="80" as="geometry"/>
                </mxCell>
                <mxCell id="12" value="+" style="ellipse;whiteSpace=wrap;html=1;aspect=fixed;strokeWidth=4;fontStyle=1;fontSize=19;" parent="1" vertex="1">
                    <mxGeometry x="40" y="360" width="80" height="80" as="geometry"/>
                </mxCell>
                <mxCell id="13" value="-" style="ellipse;whiteSpace=wrap;html=1;aspect=fixed;strokeWidth=4;fontStyle=1;fontSize=19;" parent="1" vertex="1">
                    <mxGeometry x="30" y="190" width="80" height="80" as="geometry"/>
                </mxCell>
                <mxCell id="25" value="" style="endArrow=none;html=1;strokeWidth=5;exitX=1;exitY=0.5;exitDx=0;exitDy=0;entryX=1;entryY=0.5;entryDx=0;entryDy=0;" parent="1" source="3" target="4" edge="1">
                    <mxGeometry width="50" height="50" relative="1" as="geometry">
                        <mxPoint x="500" y="310" as="sourcePoint"/>
                        <mxPoint x="550" y="260" as="targetPoint"/>
                        <Array as="points">
                            <mxPoint x="520" y="270"/>
                            <mxPoint x="520" y="350"/>
                        </Array>
                    </mxGeometry>
                </mxCell>
                <mxCell id="26" value="" style="endArrow=none;html=1;strokeWidth=5;exitX=1;exitY=0.5;exitDx=0;exitDy=0;entryX=1;entryY=0.5;entryDx=0;entryDy=0;" parent="1" source="2" target="5" edge="1">
                    <mxGeometry width="50" height="50" relative="1" as="geometry">
                        <mxPoint x="460" y="280" as="sourcePoint"/>
                        <mxPoint x="460" y="360" as="targetPoint"/>
                        <Array as="points">
                            <mxPoint x="550" y="190"/>
                            <mxPoint x="550" y="430"/>
                        </Array>
                    </mxGeometry>
                </mxCell>
            </root>
        </mxGraphModel>
    </diagram>
</mxfile>